<svg id="Layer_1" data-name="Layer 1" xmlns="http://www.w3.org/2000/svg" xmlns:xlink="http://www.w3.org/1999/xlink" viewBox="0 0 417 394"><defs><style>.cls-1{fill:url(#New_Gradient_Swatch_1);}.cls-2{fill:url(#New_Gradient_Swatch_1-2);}.cls-3{fill:url(#New_Gradient_Swatch_1-3);}.cls-4{fill:#fff;}</style><linearGradient id="New_Gradient_Swatch_1" x1="31.22" y1="189.54" x2="86.1" y2="251.49" gradientUnits="userSpaceOnUse"><stop offset="0" stop-color="#b82ae9"/><stop offset="1" stop-color="#4943e7"/></linearGradient><linearGradient id="New_Gradient_Swatch_1-2" x1="45.4" y1="176.98" x2="100.28" y2="238.93" xlink:href="#New_Gradient_Swatch_1"/><linearGradient id="New_Gradient_Swatch_1-3" x1="65.29" y1="159.36" x2="120.17" y2="221.31" xlink:href="#New_Gradient_Swatch_1"/></defs><path class="cls-1" d="M71.4,220.49l-.13-.18a1.31,1.31,0,0,0-1.18-.76h-.3c-.4,0-34.5,0-34.5,0l8.1-14q6.4-11.07,12.79-22.14c.39.68,7.71,13.4,7.9,13.69,0,0,.65,1,1.37,1h9.28a1.34,1.34,0,0,0,1.14-2c-4.67-8-9.26-16.12-14-24.14-1.36-2.75-3.06-5.34-4.59-8A1.32,1.32,0,0,0,55,164Q45.76,180,36.5,196.08q-4.66,8.05-9.31,16.12c-1.55,2.67-3.37,5.32-4.66,8.12-1.59,2.6-3.05,5.29-4.6,7.92a1.33,1.33,0,0,0,1.14,2H74.73a1.34,1.34,0,0,0,1.14-2C74.38,225.66,73,223,71.4,220.49Z"/><path class="cls-2" d="M113,228.24q-2.27-3.94-4.54-7.87a12.93,12.93,0,0,0-1.46-2.52q-5.94-10.31-11.9-20.61c-.52-.9-.84-1.74-2-1.79-3-.13-6,0-9,0a1.35,1.35,0,0,0-1.33,1.33,4.57,4.57,0,0,0,.88,1.88c.63,1.09,1.26,2.17,1.88,3.26q5.1,8.81,10.18,17.63H89.4l-8.67-15c0-.05-.65-1.05-1.37-1.05H54.5c-1.43,0-3.42-.44-4.27.94-1.56,2.54-3,5.17-4.48,7.75a1.36,1.36,0,0,0,.21,1.61c.68.67,2.33.39,3.18.39H74L80.21,225a50.77,50.77,0,0,0,2.62,4.53c.6.85,1.43.71,2.34.71h26.66A1.34,1.34,0,0,0,113,228.24Z"/><path class="cls-3" d="M86,191.68a13.53,13.53,0,0,1,3.37-5.62,13.4,13.4,0,0,1,5.6-3.35,13.71,13.71,0,0,1-5.6-3.38,13.55,13.55,0,0,1-3.37-5.6,14.72,14.72,0,0,1-3.47,5.5,15,15,0,0,1-5.5,3.48,13.39,13.39,0,0,1,9,9Z"/><polygon class="cls-4" points="133.89 201.58 121.26 230.11 129.41 230.11 137.72 209.37 146.07 230.11 154.34 230.11 141.71 201.58 133.89 201.58"/><polygon class="cls-4" points="184.44 224.78 184.46 230.11 191.79 230.11 191.74 212.9 184.44 224.78"/><polygon class="cls-4" points="158.7 230.11 166.04 230.11 166.04 224.97 158.7 213.03 158.7 230.11"/><path class="cls-4" d="M191.05,204a4.64,4.64,0,0,0,.66-2.38h-6.52l-9.86,16.59-10.06-16.59H158.7a6,6,0,0,0,.89,3.14l13.87,22.57H177l3.3-5.53,3.43-5.73.69-1.16h0Z"/><path class="cls-4" d="M221.85,204.41a11.53,11.53,0,0,0-4-2.09,17.57,17.57,0,0,0-5.27-.74H199.66l0,6.28h12.51A5.62,5.62,0,0,1,216,209a4.48,4.48,0,0,1,0,6.23,5.62,5.62,0,0,1-3.83,1.12H199.62v13.78h8v-7.5h5a17.9,17.9,0,0,0,5.27-.73,11.71,11.71,0,0,0,4-2.1,9,9,0,0,0,2.52-3.3,11.34,11.34,0,0,0,0-8.76A9.08,9.08,0,0,0,221.85,204.41Z"/><rect class="cls-4" x="230.42" y="215.56" width="11.82" height="5.91"/><rect class="cls-4" x="249.17" y="201.58" width="7.99" height="28.52"/><path class="cls-4" d="M273.8,209.87a7.65,7.65,0,0,1,2.61-1.67,9.34,9.34,0,0,1,3.36-.59,9.09,9.09,0,0,1,7,3.18l5.05-4.6a13.58,13.58,0,0,0-5.27-3.85,18.24,18.24,0,0,0-7.16-1.33,17.79,17.79,0,0,0-6.35,1.1,15.45,15.45,0,0,0-5,3.06,13.71,13.71,0,0,0-3.3,4.68,15.79,15.79,0,0,0,0,12,13.83,13.83,0,0,0,3.28,4.69,15.33,15.33,0,0,0,5,3.06,17.39,17.39,0,0,0,6.25,1.1,22.79,22.79,0,0,0,6.32-.92,17.57,17.57,0,0,0,5.62-2.71V215.23h-7.05v7.91a8.61,8.61,0,0,1-2.18.73,11.61,11.61,0,0,1-2.22.21,8.61,8.61,0,0,1-3.32-.62,7.66,7.66,0,0,1-2.57-1.69,7.42,7.42,0,0,1-1.67-2.58,9.2,9.2,0,0,1-.59-3.35,9.33,9.33,0,0,1,.59-3.38A7.46,7.46,0,0,1,273.8,209.87Z"/><polygon class="cls-4" points="317.67 209.08 325.45 218.47 325.45 201.58 317.67 201.58 317.67 209.08"/><polygon class="cls-4" points="298.39 230.11 306.22 230.11 306.22 222.68 298.39 213.23 298.39 230.11"/><path class="cls-4" d="M317.67,216.93h0L305,201.58h-6.57a10.45,10.45,0,0,0,2.4,6.66l5.43,6.54v0l7.13,8.65,5.54,6.72h6.56a10.51,10.51,0,0,0-2.39-6.66Z"/><rect class="cls-4" x="333.27" y="201.58" width="7.99" height="28.52"/><polygon class="cls-4" points="346.36 207.9 355.12 207.9 355.12 230.11 363.1 230.11 363.1 207.9 371.86 207.9 371.86 201.58 346.36 201.58 346.36 207.9"/><rect class="cls-4" x="376.96" y="212.67" width="22.29" height="5.95"/><rect class="cls-4" x="376.96" y="201.58" width="22.29" height="6.19"/><rect class="cls-4" x="376.96" y="223.91" width="22.29" height="6.19"/></svg>