<?xml version="1.0" encoding="UTF-8" standalone="no"?>
<svg
   id="Layer_1"
   data-name="Layer 1"
   viewBox="0 0 383 69"
   version="1.1"
   sodipodi:docname="logo.svg"
   width="383px"
   height="69px"
   inkscape:version="1.3.2 (091e20e, 2023-11-25, custom)"
   fill="currentColor"
   y="0px"
   x="0px"
   xml:space="preserve"
   style="enable-background:new 0 0 383 69"
   xmlns:inkscape="http://www.inkscape.org/namespaces/inkscape"
   xmlns:sodipodi="http://sodipodi.sourceforge.net/DTD/sodipodi-0.dtd"
   xmlns="http://www.w3.org/2000/svg"
   xmlns:svg="http://www.w3.org/2000/svg"><defs
     id="defs11" /><sodipodi:namedview
     id="namedview11"
     pagecolor="#ffffff"
     bordercolor="#000000"
     borderopacity="0.25"
     inkscape:showpageshadow="2"
     inkscape:pageopacity="0.0"
     inkscape:pagecheckerboard="0"
     inkscape:deskcolor="#d1d1d1"
     inkscape:clip-to-page="false"
     inkscape:zoom="2.0837563"
     inkscape:cx="101.97929"
     inkscape:cy="179.48356"
     inkscape:window-width="958"
     inkscape:window-height="1008"
     inkscape:window-x="953"
     inkscape:window-y="0"
     inkscape:window-maximized="0"
     inkscape:current-layer="Layer_1" /><g
     id="caption"
     transform="translate(-16.79659,-162.68697)"
     sodipodi:insensitive="true"><polygon
       points="133.89,201.58 121.26,230.11 129.41,230.11 137.72,209.37 146.07,230.11 154.34,230.11 141.71,201.58 "
       id="polygon3" /><polygon
       points="184.44,224.78 184.46,230.11 191.79,230.11 191.74,212.9 "
       id="polygon4" /><polygon
       points="158.7,230.11 166.04,230.11 166.04,224.97 158.7,213.03 "
       id="polygon5" /><path
       d="m 191.05,204 a 4.64,4.64 0 0 0 0.66,-2.38 h -6.52 l -9.86,16.59 -10.06,-16.59 h -6.57 a 6,6 0 0 0 0.89,3.14 l 13.87,22.57 H 177 l 3.3,-5.53 3.43,-5.73 0.69,-1.16 v 0 z"
       id="path5" /><path
       d="m 221.85,204.41 a 11.53,11.53 0 0 0 -4,-2.09 17.57,17.57 0 0 0 -5.27,-0.74 h -12.92 v 6.28 h 12.51 a 5.62,5.62 0 0 1 3.83,1.14 4.48,4.48 0 0 1 0,6.23 5.62,5.62 0 0 1 -3.83,1.12 h -12.55 v 13.78 h 8 v -7.5 h 5 a 17.9,17.9 0 0 0 5.27,-0.73 11.71,11.71 0 0 0 4,-2.1 9,9 0 0 0 2.52,-3.3 11.34,11.34 0 0 0 0,-8.76 9.08,9.08 0 0 0 -2.56,-3.33 z"
       id="path6" /><rect
       x="230.42"
       y="215.56"
       width="11.82"
       height="5.9099998"
       id="rect6" /><rect
       x="249.17"
       y="201.58"
       width="7.9899998"
       height="28.52"
       id="rect7" /><path
       d="m 273.8,209.87 a 7.65,7.65 0 0 1 2.61,-1.67 9.34,9.34 0 0 1 3.36,-0.59 9.09,9.09 0 0 1 7,3.18 l 5.05,-4.6 a 13.58,13.58 0 0 0 -5.27,-3.85 18.24,18.24 0 0 0 -7.16,-1.33 17.79,17.79 0 0 0 -6.35,1.1 15.45,15.45 0 0 0 -5,3.06 13.71,13.71 0 0 0 -3.3,4.68 15.79,15.79 0 0 0 0,12 13.83,13.83 0 0 0 3.28,4.69 15.33,15.33 0 0 0 5,3.06 17.39,17.39 0 0 0 6.25,1.1 22.79,22.79 0 0 0 6.32,-0.92 17.57,17.57 0 0 0 5.62,-2.71 v -11.84 h -7.05 v 7.91 a 8.61,8.61 0 0 1 -2.18,0.73 11.61,11.61 0 0 1 -2.22,0.21 8.61,8.61 0 0 1 -3.32,-0.62 7.66,7.66 0 0 1 -2.57,-1.69 7.42,7.42 0 0 1 -1.67,-2.58 9.2,9.2 0 0 1 -0.59,-3.35 9.33,9.33 0 0 1 0.59,-3.38 7.46,7.46 0 0 1 1.6,-2.59 z"
       id="path7" /><polygon
       points="317.67,209.08 325.45,218.47 325.45,201.58 317.67,201.58 "
       id="polygon7" /><polygon
       points="298.39,230.11 306.22,230.11 306.22,222.68 298.39,213.23 "
       id="polygon8" /><path
       d="m 317.67,216.93 v 0 L 305,201.58 h -6.57 a 10.45,10.45 0 0 0 2.4,6.66 l 5.43,6.54 v 0 l 7.13,8.65 5.54,6.72 h 6.56 a 10.51,10.51 0 0 0 -2.39,-6.66 z"
       id="path8" /><rect
       x="333.26999"
       y="201.58"
       width="7.9899998"
       height="28.52"
       id="rect8" /><polygon
       points="346.36,207.9 355.12,207.9 355.12,230.11 363.1,230.11 363.1,207.9 371.86,207.9 371.86,201.58 346.36,201.58 "
       id="polygon9" /><rect
       x="376.95999"
       y="212.67"
       width="22.290001"
       height="5.9499998"
       id="rect9" /><rect
       x="376.95999"
       y="201.58"
       width="22.290001"
       height="6.1900001"
       id="rect10" /><rect
       x="376.95999"
       y="223.91"
       width="22.290001"
       height="6.1900001"
       id="rect11" /></g><g
     id="logo"
     transform="translate(-16.79659,-162.68697)"
     style="display:inline"
     sodipodi:insensitive="true"><path
       d="m 71.4,220.49 -0.13,-0.18 a 1.31,1.31 0 0 0 -1.18,-0.76 h -0.3 c -0.4,0 -34.5,0 -34.5,0 l 8.1,-14 q 6.4,-11.07 12.79,-22.14 c 0.39,0.68 7.71,13.4 7.9,13.69 0,0 0.65,1 1.37,1 h 9.28 a 1.34,1.34 0 0 0 1.14,-2 c -4.67,-8 -9.26,-16.12 -14,-24.14 -1.36,-2.75 -3.06,-5.34 -4.59,-8 A 1.32,1.32 0 0 0 55,164 q -9.24,16 -18.5,32.08 -4.66,8.05 -9.31,16.12 c -1.55,2.67 -3.37,5.32 -4.66,8.12 -1.59,2.6 -3.05,5.29 -4.6,7.92 a 1.33,1.33 0 0 0 1.14,2 h 55.66 a 1.34,1.34 0 0 0 1.14,-2 C 74.38,225.66 73,223 71.4,220.49 Z"
       id="path1" /><path
       d="m 113,228.24 q -2.27,-3.94 -4.54,-7.87 A 12.93,12.93 0 0 0 107,217.85 q -5.94,-10.31 -11.9,-20.61 c -0.52,-0.9 -0.84,-1.74 -2,-1.79 -3,-0.13 -6,0 -9,0 a 1.35,1.35 0 0 0 -1.33,1.33 4.57,4.57 0 0 0 0.88,1.88 c 0.63,1.09 1.26,2.17 1.88,3.26 q 5.1,8.81 10.18,17.63 H 89.4 l -8.67,-15 c 0,-0.05 -0.65,-1.05 -1.37,-1.05 H 54.5 c -1.43,0 -3.42,-0.44 -4.27,0.94 -1.56,2.54 -3,5.17 -4.48,7.75 a 1.36,1.36 0 0 0 0.21,1.61 c 0.68,0.67 2.33,0.39 3.18,0.39 H 74 L 80.21,225 a 50.77,50.77 0 0 0 2.62,4.53 c 0.6,0.85 1.43,0.71 2.34,0.71 h 26.66 a 1.34,1.34 0 0 0 1.17,-2 z"
       id="path2" /><path
       d="m 86,191.68 a 13.53,13.53 0 0 1 3.37,-5.62 13.4,13.4 0 0 1 5.6,-3.35 13.71,13.71 0 0 1 -5.6,-3.38 13.55,13.55 0 0 1 -3.37,-5.6 14.72,14.72 0 0 1 -3.47,5.5 15,15 0 0 1 -5.5,3.48 13.39,13.39 0 0 1 9,9 z"
       id="path3" /></g></svg>
