<svg id="Layer_1" data-name="Layer 1" xmlns="http://www.w3.org/2000/svg" xmlns:xlink="http://www.w3.org/1999/xlink" viewBox="0 0 2834.65 2834.65"><defs><style>.cls-1{fill:url(#New_Gradient_Swatch_1);}.cls-2{fill:url(#New_Gradient_Swatch_1-2);}.cls-3{fill:url(#New_Gradient_Swatch_1-3);}</style><linearGradient id="New_Gradient_Swatch_1" x1="676.76" y1="1260.68" x2="1864.16" y2="2600.91" gradientUnits="userSpaceOnUse"><stop offset="0" stop-color="#b82ae9"/><stop offset="1" stop-color="#4943e7"/></linearGradient><linearGradient id="New_Gradient_Swatch_1-2" x1="983.46" y1="988.96" x2="2170.86" y2="2329.19" xlink:href="#New_Gradient_Swatch_1"/><linearGradient id="New_Gradient_Swatch_1-3" x1="1413.81" y1="607.68" x2="2601.21" y2="1947.91" xlink:href="#New_Gradient_Swatch_1"/></defs><path class="cls-1" d="M1546,1930.33a37.32,37.32,0,0,0-2.7-3.9,28.28,28.28,0,0,0-25.66-16.54h-6.48c-8.61-.74-746.44,0-746.44,0Q852.49,1758,940.06,1606.11q138.45-239.47,276.63-479c8.44,14.64,166.88,290,171.07,296.27.57.92,14,22.56,29.56,22.56H1618c21.81,0,35.65-24.4,24.74-43.23-100.92-173.88-200.4-348.79-302.07-522.27-29.39-59.36-66.24-115.44-99.25-172.85a28.79,28.79,0,0,0-49.6,0q-200.46,347.28-400.91,694.55-100.83,174.36-201.44,348.73c-33.41,57.81-72.79,115-100.8,175.72-34.27,56.2-66,114.46-99.48,171.24-10.91,18.83,2.93,43.22,24.8,43.22h952.17a6.7,6.7,0,0,0,1.09.06H1618c21.81,0,35.65-24.34,24.74-43.17C1610.55,2042.15,1579.78,1985.21,1546,1930.33Z"/><path class="cls-2" d="M2445.48,2097.88q-49.17-85.16-98.34-170.26c-5.62-18.95-23.3-40.36-31.51-54.54q-128.61-223-257.4-445.86c-11.31-19.52-18.2-37.6-43.92-38.69-65-2.76-130.6,0-195.63,0a29.13,29.13,0,0,0-28.71,28.7c0,14,12.4,29.28,19.06,40.76q20.33,35.22,40.64,70.43,110.25,190.69,220.27,381.46H1935.55c-30.6-53-155.62-269.59-187.66-325-.57-.92-14-22.56-29.56-22.56H1180.39c-30.88,0-74-9.53-92.42,20.38-33.76,54.88-64.53,111.83-96.79,167.62a29.36,29.36,0,0,0,4.48,34.79c14.64,14.58,50.34,8.44,68.77,8.44h537c45.21,78.23,89.84,155.54,135.24,234.15,18.55,32.15,35,67.8,56.6,98,13.09,18.32,31.06,15.39,50.69,15.39h576.75C2442.49,2141.05,2456.33,2116.71,2445.48,2097.88Z"/><path class="cls-3" d="M1861.31,1306.9a291.46,291.46,0,0,1,194.12-194.13,293,293,0,0,1-194.12-194.12,319.2,319.2,0,0,1-194.12,194.12,290.35,290.35,0,0,1,194.12,194.13Z"/></svg>