<?xml version="1.0" encoding="utf-8"?>
<!-- Generator: Adobe Illustrator 27.0.1, SVG Export Plug-In . SVG Version: 6.00 Build 0)  -->
<svg version="1.1" id="Layer_1" xmlns="http://www.w3.org/2000/svg" xmlns:xlink="http://www.w3.org/1999/xlink" x="0px" y="0px"
	 width="130px" height="60px" viewBox="0 0 130 60" style="enable-background:new 0 0 130 60;" xml:space="preserve" fill="currentColor">
	<style type="text/css">
		.st0{fill:#111111;}
		.st1{fill:#4D26B3;}
		@media (prefers-color-scheme: dark) {
			.st0{fill:#f2f2f2;}
			.st1{fill:#ffffff;}
		}
	</style>
	<path id="caption" fill="currentColor" d="M75.7,39.6V20.2h3.5v8.1h4v-8.1h3.5v19.4h-3.5v-8.8h-4v8.8H75.7z M90.4,39.6V20.2h8.2v2.5h-4.6
		v5.6h3.6v2.5h-3.6v6.4h4.7v2.4H90.4z M101.2,39.6V20.2h3.6v17h4.7v2.4H101.2z M112,39.6V20.2h3.5v19.4H112z M124.4,39.9
		c-1.4,0-2.5-0.3-3.3-0.8c-0.8-0.5-1.4-1.2-1.8-2.2c-0.4-1-0.5-2.1-0.5-3.4v-7.3c0-1.3,0.2-2.4,0.5-3.4c0.4-0.9,0.9-1.7,1.8-2.1
		s1.9-0.7,3.3-0.7c1.4,0,2.5,0.2,3.3,0.7c0.8,0.5,1.4,1.2,1.8,2.1c0.4,0.9,0.5,2.1,0.5,3.4v7.3c0,1.3-0.2,2.4-0.5,3.4
		c-0.4,1-0.9,1.7-1.8,2.2C126.9,39.6,125.8,39.9,124.4,39.9z M124.4,37.2c0.6,0,1-0.1,1.3-0.4s0.5-0.6,0.6-1.1
		c0.1-0.4,0.1-0.9,0.1-1.5v-9c0-0.5,0-1-0.1-1.5c-0.1-0.4-0.3-0.8-0.6-1s-0.7-0.4-1.3-0.4c-0.6,0-1,0.1-1.3,0.4
		c-0.3,0.2-0.5,0.6-0.6,1c-0.1,0.4-0.1,0.9-0.1,1.5v9c0,0.5,0,1,0.1,1.5s0.3,0.8,0.6,1.1C123.4,37.1,123.8,37.2,124.4,37.2z"/>
	<path id="logo" fill="currentColor" d="M60,24.5c-0.8-1.1-1.5-2.2-1.8-3.3
		c-0.4-1.2-0.4-2.5-0.5-3.9c-0.1-2-0.2-4.1-1.3-5.7c-1.2-1.6-3.1-2.3-5-3c-1.3-0.5-2.5-0.9-3.5-1.6c-0.9-0.7-1.8-1.7-2.6-2.8
		c-1.3-1.6-2.6-3.3-4.5-3.9C39-0.3,37,0.2,35,0.8c-1.3,0.4-2.7,0.7-3.9,0.7s-2.6-0.4-3.9-0.7c-1.9-0.5-3.9-1.1-5.7-0.5
		c-1.9,0.6-3.2,2.3-4.5,3.9c-0.9,1.1-1.7,2.1-2.6,2.8c-1,0.7-2.2,1.2-3.5,1.6c-1.9,0.7-3.9,1.4-5,3c-1.1,1.6-1.2,3.7-1.3,5.7
		C4.4,18.6,4.4,20,4,21.2c-0.4,1.1-1.1,2.2-1.8,3.3C1,26.2-0.2,28-0.2,30c0,2,1.2,3.8,2.3,5.5c0.8,1.1,1.5,2.2,1.8,3.3
		c0.4,1.2,0.4,2.5,0.5,3.9c0.1,2,0.2,4.1,1.3,5.7c1.2,1.6,3.1,2.3,5,3c1.3,0.5,2.5,0.9,3.5,1.6c0.9,0.7,1.8,1.7,2.6,2.8
		c1.3,1.6,2.6,3.3,4.5,3.9c0.6,0.2,1.1,0.3,1.7,0.3c1.3,0,2.7-0.4,4-0.8c1.3-0.4,2.7-0.7,3.9-0.7s2.6,0.4,3.9,0.7
		c1.9,0.5,3.9,1.1,5.7,0.5c1.9-0.6,3.2-2.3,4.5-3.9c0.9-1.1,1.7-2.1,2.6-2.8c1-0.7,2.2-1.2,3.5-1.6c1.9-0.7,3.9-1.4,5-3
		c1.1-1.6,1.2-3.7,1.3-5.7c0.1-1.3,0.1-2.7,0.5-3.9c0.4-1.1,1.1-2.2,1.8-3.3c1.1-1.7,2.3-3.5,2.3-5.5C62.4,28,61.2,26.2,60,24.5z
		M56.3,13.8C56.3,13.8,56.3,13.9,56.3,13.8C56.3,13.9,56.2,13.8,56.3,13.8C56.2,13.8,56.2,13.8,56.3,13.8z M55.6,12.2
		c0.1,0.1,0.1,0.2,0.2,0.3c-0.1,0-0.1,0-0.2-0.1c-0.8-0.3-1.5-0.6-2.2-0.9c-0.4-0.5-0.9-1.1-1.4-1.6C53.5,10.5,54.8,11.1,55.6,12.2z
		M6.6,47.8c-1-1.3-1-3.2-1.1-5.1c-0.1-1.4-0.1-2.9-0.5-4.2C4.6,37.3,3.8,36.1,3,35c-1.1-1.6-2.2-3.2-2.2-5S2,26.6,3,25
		c0.8-1.1,1.5-2.3,1.9-3.5c0.4-1.3,0.5-2.7,0.5-4.2c0.1-2,0.2-3.8,1.1-5.1c1-1.3,2.7-2,4.6-2.7c1.3-0.5,2.7-1,3.8-1.8
		c1.1-0.8,2-1.9,2.8-3c1.2-1.6,2.4-3,4-3.5C22.2,1.1,22.7,1,23.2,1c1.2,0,2.4,0.4,3.8,0.7c1.4,0.4,2.8,0.8,4.2,0.8s2.8-0.4,4.2-0.8
		c1.9-0.5,3.6-1,5.2-0.5c1.3,0.4,2.3,1.4,3.2,2.6c-1.5-0.1-3,0.3-4.5,0.7c-1.3,0.4-2.7,0.7-3.9,0.7S32.7,5,31.4,4.6
		c-1.9-0.5-3.9-1.1-5.7-0.5c-1.9,0.6-3.2,2.3-4.5,3.9c-0.9,1.1-1.7,2.1-2.6,2.8c-1,0.7-2.2,1.2-3.5,1.6c-1.9,0.7-3.9,1.4-5,3
		c-1.1,1.6-1.2,3.7-1.3,5.7c-0.1,1.3-0.1,2.7-0.5,3.9c-0.4,1.1-1.1,2.2-1.8,3.3C5.2,30,4,31.8,4,33.8c0,2,1.2,3.8,2.3,5.5
		c0.8,1.1,1.5,2.2,1.8,3.3c0.4,1.2,0.4,2.5,0.5,3.9c0,1,0.1,2,0.3,3C8,49.1,7.2,48.5,6.6,47.8z M11.2,50.4c-0.4-0.1-0.8-0.3-1.1-0.4
		c-0.3-1.1-0.3-2.3-0.4-3.5c-0.1-1.4-0.1-2.9-0.5-4.2c-0.4-1.2-1.2-2.4-1.9-3.5c-1.1-1.6-2.2-3.2-2.2-5c0-1.7,1.1-3.4,2.2-5
		c0.8-1.1,1.5-2.3,1.9-3.5c0.4-1.3,0.5-2.7,0.5-4.2c0.1-2,0.2-3.8,1.1-5.1c1-1.3,2.7-2,4.6-2.7c1.3-0.5,2.7-1,3.8-1.8
		c1.1-0.8,2-1.9,2.8-3c1.2-1.6,2.4-3,4-3.5c0.4-0.1,0.9-0.2,1.4-0.2c1.2,0,2.4,0.4,3.8,0.7c1.4,0.4,2.8,0.8,4.2,0.8
		c1.4,0,2.8-0.4,4.2-0.8c1.9-0.5,3.6-1,5.2-0.5c0,0,0.1,0,0.1,0c0,0-0.1-0.1-0.1-0.1c0.8,1,1.6,2,2.6,2.7c-1.3,0-2.5,0.4-3.8,0.7
		c-1.3,0.4-2.7,0.7-3.9,0.7s-2.6-0.4-3.9-0.7c-1.9-0.5-3.9-1.1-5.7-0.5c-1.9,0.6-3.2,2.3-4.5,3.9c-0.9,1.1-1.7,2.1-2.6,2.8
		c-1,0.7-2.2,1.2-3.5,1.6c-1.9,0.7-3.9,1.4-5,3C13,20.9,12.9,23,12.8,25c-0.1,1.3-0.1,2.7-0.5,3.9c-0.4,1.1-1.1,2.2-1.8,3.3
		c-1.1,1.7-2.3,3.5-2.3,5.5c0,2,1.2,3.8,2.3,5.5c0.8,1.1,1.5,2.2,1.8,3.3c0.4,1.2,0.4,2.5,0.5,3.9c0,0.2,0,0.5,0,0.7
		C12.3,50.9,11.8,50.6,11.2,50.4z M15,52.2c-0.3-0.2-0.7-0.4-1-0.6c0,0,0,0,0,0c0-0.4-0.1-0.8-0.1-1.3c-0.1-1.4-0.1-2.9-0.5-4.2
		c-0.4-1.2-1.2-2.4-1.9-3.5c-1.1-1.6-2.2-3.2-2.2-5c0-1.7,1.1-3.4,2.2-5c0.8-1.1,1.5-2.3,1.9-3.5c0.4-1.3,0.5-2.7,0.5-4.2
		c0.1-2,0.2-3.8,1.1-5.1c1-1.3,2.7-2,4.6-2.7c1.3-0.5,2.7-1,3.8-1.8c1.1-0.8,2-1.9,2.8-3c1.2-1.6,2.4-3,4-3.5
		c0.4-0.1,0.9-0.2,1.4-0.2c1.2,0,2.4,0.4,3.8,0.7c1.4,0.4,2.8,0.8,4.2,0.8c1.4,0,2.8-0.4,4.2-0.8c1.9-0.5,3.6-1,5.2-0.5
		c0,0,0.1,0,0.1,0c0.7,0.9,1.5,1.9,2.4,2.6c-1.2,0-2.5,0.4-3.8,0.7c-1.3,0.4-2.7,0.7-3.9,0.7s-2.6-0.4-3.9-0.7
		c-1.9-0.5-3.9-1.1-5.7-0.5c-1.9,0.6-3.2,2.3-4.5,3.9c-0.9,1.1-1.7,2.1-2.6,2.8c-1,0.7-2.2,1.2-3.5,1.6c-1.9,0.7-3.9,1.4-5,3
		c-1.1,1.6-1.2,3.7-1.3,5.7c-0.1,1.3-0.1,2.7-0.5,3.9c-0.4,1.1-1.1,2.2-1.8,3.3c-1.1,1.7-2.3,3.5-2.3,5.5c0,2,1.2,3.8,2.3,5.5
		c0.8,1.1,1.5,2.2,1.8,3.3c0.4,1.2,0.4,2.5,0.5,3.9c0,0,0,0,0,0C16.4,53.5,15.7,52.8,15,52.2z M19.1,56.1c-0.3-0.2-0.7-0.4-1-0.6
		c0-0.4,0-0.8-0.1-1.3c-0.1-1.4-0.1-2.9-0.5-4.2c-0.4-1.2-1.2-2.4-1.9-3.5c-1.1-1.6-2.2-3.2-2.2-5s1.1-3.4,2.2-5
		c0.8-1.1,1.5-2.3,1.9-3.5c0.4-1.3,0.5-2.7,0.5-4.2c0.1-2,0.2-3.8,1.1-5.1c1-1.3,2.7-2,4.6-2.7c1.3-0.5,2.7-1,3.8-1.8
		c1.1-0.8,2-1.9,2.8-3c1.2-1.6,2.4-3,4-3.5c0.4-0.1,0.9-0.2,1.4-0.2c1.2,0,2.4,0.4,3.8,0.7c1.4,0.4,2.8,0.8,4.2,0.8s2.8-0.4,4.2-0.8
		c1.9-0.5,3.6-1,5.2-0.5c0,0,0.1,0,0.1,0c0.7,0.9,1.5,1.9,2.4,2.6c-1.2,0-2.5,0.4-3.8,0.7c-1.3,0.4-2.7,0.7-3.9,0.7s-2.6-0.4-3.9-0.7
		c-1.9-0.5-3.9-1.1-5.7-0.5c-1.9,0.6-3.2,2.3-4.5,3.9c-0.9,1.1-1.7,2.1-2.6,2.8c-1,0.7-2.2,1.2-3.5,1.6c-1.9,0.7-3.9,1.4-5,3
		c-1.1,1.6-1.2,3.7-1.3,5.7c-0.1,1.3-0.1,2.7-0.5,3.9c-0.4,1.1-1.1,2.2-1.8,3.3c-1.1,1.7-2.3,3.5-2.3,5.5c0,2,1.2,3.8,2.3,5.5
		c0.8,1.1,1.5,2.2,1.8,3.3c0.4,1.2,0.4,2.5,0.5,3.9c0,0,0,0,0,0C20.5,57.3,19.9,56.6,19.1,56.1z M22.2,58.9c0-0.3,0-0.6,0-0.9
		c-0.1-1.4-0.1-2.9-0.5-4.2c-0.4-1.2-1.2-2.4-1.9-3.5c-1.1-1.6-2.2-3.2-2.2-5c0-1.7,1.1-3.4,2.2-5c0.8-1.1,1.5-2.3,1.9-3.5
		c0.4-1.3,0.5-2.7,0.5-4.2c0.1-2,0.2-3.8,1.1-5.1c1-1.3,2.7-2,4.6-2.7c1.3-0.5,2.7-1,3.8-1.8c1.1-0.8,2-1.9,2.8-3
		c1.2-1.6,2.4-3,4-3.5c0.4-0.1,0.9-0.2,1.4-0.2c1.2,0,2.4,0.4,3.8,0.7c1.4,0.4,2.8,0.8,4.2,0.8c1.4,0,2.8-0.4,4.2-0.8
		c1.7-0.5,3.3-0.9,4.7-0.6c0,0.3,0,0.6,0,0.9c0,0.8,0.1,1.5,0.2,2.3c-0.3,0.1-0.7,0.2-1,0.3c-1.3,0.4-2.7,0.7-3.9,0.7
		s-2.6-0.4-3.9-0.7c-1.9-0.5-3.9-1.1-5.7-0.5c-1.9,0.6-3.2,2.3-4.5,3.9c-0.9,1.1-1.7,2.1-2.6,2.8c-1,0.7-2.2,1.2-3.5,1.6
		c-1.9,0.7-3.9,1.4-5,3c-1.1,1.6-1.2,3.7-1.3,5.7c-0.1,1.3-0.1,2.7-0.5,3.9c-0.4,1.1-1.1,2.2-1.8,3.3c-1.1,1.7-2.3,3.5-2.3,5.5
		c0,2,1.2,3.8,2.3,5.5c0.8,1.1,1.5,2.2,1.8,3.3c0.1,0.2,0.1,0.5,0.2,0.8C24,58.9,23.1,59,22.2,58.9z M26.9,58.2
		c-0.3,0.1-0.6,0.2-0.9,0.2c-0.1-0.3-0.1-0.6-0.2-0.8c-0.4-1.2-1.2-2.4-1.9-3.5c-1.1-1.6-2.2-3.2-2.2-5c0-1.7,1.1-3.4,2.2-5
		c0.8-1.1,1.5-2.3,1.9-3.5c0.4-1.3,0.5-2.7,0.5-4.2c0.1-2,0.2-3.8,1.1-5.1c1-1.3,2.7-2,4.6-2.7c1.3-0.5,2.7-1,3.8-1.8
		c1.1-0.8,2-1.9,2.8-3c1.2-1.6,2.4-3,4-3.5c0.4-0.1,0.9-0.2,1.4-0.2c1.2,0,2.4,0.4,3.8,0.7c1.4,0.4,2.8,0.8,4.2,0.8
		c1.4,0,2.8-0.4,4.2-0.8c0.3-0.1,0.6-0.2,0.9-0.2c0.1,0.3,0.1,0.6,0.2,0.8c0.3,0.9,0.8,1.8,1.3,2.6c0,0,0,0,0,0
		c-0.8,0.2-1.7,0.4-2.5,0.4c-1.2,0-2.6-0.4-3.9-0.7c-1.9-0.5-3.9-1.1-5.7-0.5c-1.9,0.6-3.2,2.3-4.5,3.9c-0.9,1.1-1.7,2.1-2.6,2.8
		c-1,0.7-2.2,1.2-3.5,1.6c-1.9,0.7-3.9,1.4-5,3c-1.1,1.6-1.2,3.7-1.3,5.7c-0.1,1.3-0.1,2.7-0.5,3.9c-0.4,1.1-1.1,2.2-1.8,3.3
		C26,49.2,24.8,51,24.8,53C24.8,54.9,25.9,56.6,26.9,58.2C27,58.2,27,58.2,26.9,58.2C27,58.2,26.9,58.2,26.9,58.2z M28,57.9
		c-1.1-1.6-2.2-3.2-2.2-4.9c0-1.7,1.1-3.4,2.2-5c0.8-1.1,1.5-2.3,1.9-3.5c0.4-1.3,0.5-2.7,0.5-4.2c0.1-2,0.2-3.8,1.1-5.1
		c1-1.3,2.7-2,4.6-2.7c1.3-0.5,2.7-1,3.8-1.8c1.1-0.8,2-1.9,2.8-3c1.2-1.6,2.4-3,4-3.5c0.4-0.1,0.9-0.2,1.4-0.2
		c1.2,0,2.4,0.4,3.8,0.7c1.4,0.4,2.8,0.8,4.2,0.8c1,0,2.1-0.2,3.1-0.5c0.7,1.1,1.5,2.2,1.8,3.4c-0.3,0-0.6,0.1-0.9,0.1
		c-1.2,0-2.6-0.4-3.9-0.7c-1.9-0.5-3.9-1.1-5.7-0.5c-1.9,0.6-3.2,2.3-4.5,3.9c-0.9,1.1-1.7,2.1-2.6,2.8c-1,0.7-2.2,1.2-3.5,1.6
		c-1.9,0.7-3.9,1.4-5,3c-1.1,1.6-1.2,3.7-1.3,5.7c-0.1,1.3-0.1,2.7-0.5,3.9c-0.4,1.1-1.1,2.2-1.8,3.3C30,53.2,28.8,55,28.8,57
		c0,0.3,0,0.5,0.1,0.7C28.6,57.8,28.3,57.9,28,57.9z M55.6,47.8c-1,1.3-2.7,2-4.6,2.7c-1.3,0.5-2.7,1-3.8,1.8
		c-0.1,0.1-0.1,0.1-0.2,0.2c0,0,0,0,0,0c0.1-0.4,0.3-0.8,0.6-1.2c1-1.3,2.7-2,4.6-2.7c1.3-0.5,2.7-1,3.8-1.8c0.1-0.1,0.1-0.1,0.2-0.2
		C56,47,55.8,47.4,55.6,47.8z M57.2,38.5c-0.4,1.3-0.5,2.7-0.5,4.2c0,0.8-0.1,1.5-0.1,2.2c-0.4,0.4-0.8,0.8-1.2,1.1
		c-1,0.7-2.2,1.2-3.5,1.6c-1.9,0.7-3.9,1.4-5,3c-0.7,0.9-1,2-1.1,3.1c-0.4,0.5-0.8,1-1.2,1.5c-1.1,1.4-2.1,2.7-3.4,3.3
		c0.4-0.7,0.7-1.3,1-2c0.4-1.3,0.5-2.7,0.5-4.2c0.1-2,0.2-3.8,1.1-5.1c1-1.3,2.7-2,4.6-2.7c1.3-0.5,2.7-1,3.8-1.8
		c1.1-0.8,2-1.9,2.8-3c1.1-1.4,2.1-2.7,3.4-3.3c0,0,0,0,0,0C57.8,37.1,57.5,37.8,57.2,38.5z M59.2,35c0,0-0.1,0.1-0.1,0.1
		c-0.2,0-0.4,0.1-0.6,0.2c-1.9,0.6-3.2,2.3-4.5,3.9c-0.9,1.1-1.7,2.1-2.6,2.8c-1,0.7-2.2,1.2-3.5,1.6c-1.9,0.7-3.9,1.4-5,3
		c-1.1,1.6-1.2,3.7-1.3,5.7c-0.1,1.3-0.1,2.7-0.5,3.9c-0.3,0.9-0.9,1.8-1.5,2.7c-1.3,0.1-2.7-0.3-4.2-0.7c-0.2-0.1-0.4-0.1-0.5-0.1
		c0.4-0.7,0.8-1.4,1.3-2c0.8-1.1,1.5-2.3,1.9-3.5c0.4-1.3,0.5-2.7,0.5-4.2c0.1-2,0.2-3.8,1.1-5.1c1-1.3,2.7-2,4.6-2.7
		c1.3-0.5,2.7-1,3.8-1.8c1.1-0.8,2-1.9,2.8-3c1.2-1.6,2.4-3,4-3.5c0.4-0.1,0.9-0.2,1.4-0.2c1.2,0,2.4,0.4,3.8,0.7
		c0.2,0.1,0.4,0.1,0.5,0.1C60.1,33.6,59.6,34.3,59.2,35z M60.2,31.8c-1.9-0.5-3.9-1.1-5.7-0.5c-1.9,0.6-3.2,2.3-4.5,3.9
		c-0.9,1.1-1.7,2.1-2.6,2.8c-1,0.7-2.2,1.2-3.5,1.6c-1.9,0.7-3.9,1.4-5,3c-1.1,1.6-1.2,3.7-1.3,5.7c-0.1,1.3-0.1,2.7-0.5,3.9
		c-0.4,1.1-1.1,2.2-1.8,3.3c-0.5,0.8-1,1.6-1.4,2.4c-0.9-0.2-1.7-0.4-2.6-0.4c-0.4,0-0.8,0-1.2,0.1c0-0.2,0-0.4,0-0.6
		c0-1.7,1.1-3.4,2.2-5c0.8-1.1,1.5-2.3,1.9-3.5c0.4-1.3,0.5-2.7,0.5-4.2c0.1-2,0.2-3.8,1.1-5.1c1-1.3,2.7-2,4.6-2.7
		c1.3-0.5,2.7-1,3.8-1.8c1.1-0.8,2-1.9,2.8-3c1.2-1.6,2.4-3,4-3.5c0.4-0.1,0.9-0.2,1.4-0.2c1.2,0,2.4,0.4,3.8,0.7
		c1.4,0.4,2.8,0.8,4.2,0.8c0.4,0,0.8,0,1.2-0.1c0,0.2,0,0.4,0,0.6c0,0.7-0.2,1.3-0.4,1.9C60.7,31.9,60.4,31.8,60.2,31.8z"/>
</svg>
